<?xml version="1.0" encoding="utf-8"?>
<!-- Generator: Adobe Illustrator 23.0.5, SVG Export Plug-In . SVG Version: 6.00 Build 0)  -->
<svg version="1.1" id="Layer_1" xmlns="http://www.w3.org/2000/svg" xmlns:xlink="http://www.w3.org/1999/xlink" x="0px" y="0px"
	 viewBox="0 0 1854 1854" style="enable-background:new 0 0 1854 1854;" xml:space="preserve">
<style type="text/css">
	.st0{fill-rule:evenodd;clip-rule:evenodd;fill:url(#SVGID_1_);}
	.st1{filter:url(#Adobe_OpacityMaskFilter);}
	.st2{fill-rule:evenodd;clip-rule:evenodd;fill:#FFFFFF;}
	.st3{mask:url(#mask-3_1_);fill-rule:evenodd;clip-rule:evenodd;fill:url(#Rectangle_1_);}
	.st4{filter:url(#Adobe_OpacityMaskFilter_1_);}
	.st5{mask:url(#mask-3_2_);fill-rule:evenodd;clip-rule:evenodd;fill:url(#SVGID_2_);}
</style>
<title>Artboard Copy 6</title>
<desc>Created with Sketch.</desc>
<g id="Artboard-Copy-6">
	<g id="Group-Copy-2" transform="translate(0.000000, 0.000000)">
		<g id="Mask">
			
				<linearGradient id="SVGID_1_" gradientUnits="userSpaceOnUse" x1="621.1617" y1="1322.8766" x2="621.1617" y2="1322.4867" gradientTransform="matrix(1835.8203 0 0 -1853 -1139423.375 2452050.75)">
				<stop  offset="0" style="stop-color:#637E89"/>
				<stop  offset="1" style="stop-color:#6EC1E2"/>
			</linearGradient>
			<path class="st0" d="M1835.8,748.8c-83.2-426.3-458.7-748-909.3-748C414.8,0.8,0,415.6,0,927.3s414.8,926.5,926.5,926.5
				c450.6,0,826.1-321.7,909.3-748h-6.1c-83.1,422.9-455.9,742-903.2,742C418.1,1847.8,6,1435.7,6,927.3S418.1,6.8,926.5,6.8
				c447.3,0,820.1,319.1,903.2,742H1835.8z"/>
		</g>
		<defs>
			<filter id="Adobe_OpacityMaskFilter" filterUnits="userSpaceOnUse" x="-116" y="1014" width="1014" height="979">
				<feColorMatrix  type="matrix" values="1 0 0 0 0  0 1 0 0 0  0 0 1 0 0  0 0 0 1 0"/>
			</filter>
		</defs>
		<mask maskUnits="userSpaceOnUse" x="-116" y="1014" width="1014" height="979" id="mask-3_1_">
			<g class="st1">
				<path id="path-2_1_" class="st2" d="M1835.8,748.8c-83.2-426.3-458.7-748-909.3-748C414.8,0.8,0,415.6,0,927.3
					s414.8,926.5,926.5,926.5c450.6,0,826.1-321.7,909.3-748h-6.1c-83.1,422.9-455.9,742-903.2,742C418.1,1847.8,6,1435.7,6,927.3
					S418.1,6.8,926.5,6.8c447.3,0,820.1,319.1,903.2,742H1835.8z"/>
			</g>
		</mask>
		<linearGradient id="Rectangle_1_" gradientUnits="userSpaceOnUse" x1="-116" y1="1503.5" x2="898" y2="1503.5">
			<stop  offset="0" style="stop-color:#637E89"/>
			<stop  offset="1" style="stop-color:#6EC1E2"/>
		</linearGradient>
		<rect id="Rectangle" x="-116" y="1014" class="st3" width="1014" height="979"/>
		<defs>
			<filter id="Adobe_OpacityMaskFilter_1_" filterUnits="userSpaceOnUse" x="3" y="1014" width="214" height="441">
				<feColorMatrix  type="matrix" values="1 0 0 0 0  0 1 0 0 0  0 0 1 0 0  0 0 0 1 0"/>
			</filter>
		</defs>
		<mask maskUnits="userSpaceOnUse" x="3" y="1014" width="214" height="441" id="mask-3_2_">
			<g class="st4">
				<path id="path-2_2_" class="st2" d="M1835.8,748.8c-83.2-426.3-458.7-748-909.3-748C414.8,0.8,0,415.6,0,927.3
					s414.8,926.5,926.5,926.5c450.6,0,826.1-321.7,909.3-748h-6.1c-83.1,422.9-455.9,742-903.2,742C418.1,1847.8,6,1435.7,6,927.3
					S418.1,6.8,926.5,6.8c447.3,0,820.1,319.1,903.2,742H1835.8z"/>
			</g>
		</mask>
		
			<linearGradient id="SVGID_2_" gradientUnits="userSpaceOnUse" x1="618.5981" y1="1324.2041" x2="618.5981" y2="1323.2041" gradientTransform="matrix(214 0 0 -441 -132270 584988)">
			<stop  offset="0" style="stop-color:#637E89"/>
			<stop  offset="1" style="stop-color:#6EC1E2"/>
		</linearGradient>
		<rect x="3" y="1014" class="st5" width="214" height="441"/>
	</g>
</g>
</svg>
